<svg width="97" height="92" viewBox="0 0 97 92" fill="none" xmlns="http://www.w3.org/2000/svg">
<path d="M88.1293 38.4937H84.8737V38.3346H48.4987V53.668H71.3402C68.0078 62.5939 59.0535 69.0013 48.4987 69.0013C35.1066 69.0013 24.2487 58.7031 24.2487 46.0013C24.2487 33.2996 35.1066 23.0013 48.4987 23.0013C54.6804 23.0013 60.3044 25.2131 64.5866 28.8261L76.0184 17.9835C68.8 11.6029 59.1445 7.66797 48.4987 7.66797C26.1786 7.66797 8.08203 24.8317 8.08203 46.0013C8.08203 67.1709 26.1786 84.3346 48.4987 84.3346C70.8188 84.3346 88.9154 67.1709 88.9154 46.0013C88.9154 43.4311 88.6365 40.9221 88.1293 38.4937Z" fill="#FFC107"/>
<path d="M12.7422 28.1591L26.0211 37.3955C29.6141 28.9583 38.3158 23.0013 48.4988 23.0013C54.6805 23.0013 60.3045 25.2131 64.5867 28.8261L76.0185 17.9835C68.8001 11.6029 59.1446 7.66797 48.4988 7.66797C32.9748 7.66797 19.512 15.9806 12.7422 28.1591Z" fill="#FF3D00"/>
<path d="M48.5005 84.3327C58.9401 84.3327 68.4259 80.5434 75.5978 74.3814L63.0889 64.3419C58.8947 67.3671 53.7697 69.0033 48.5005 68.9994C37.9881 68.9994 29.0621 62.6418 25.6994 53.7695L12.5195 63.4008C19.2085 75.815 32.7925 84.3327 48.5005 84.3327Z" fill="#4CAF50"/>
<path d="M88.1306 38.4911H84.875V38.332H48.5V53.6654H71.3415C69.7475 57.9135 66.8762 61.6256 63.0823 64.3431L63.0884 64.3393L75.5974 74.3788C74.7122 75.1416 88.9167 65.1654 88.9167 45.9987C88.9167 43.4284 88.6378 40.9195 88.1306 38.4911Z" fill="#1976D2"/>
</svg>
