<svg width="3722" height="572" viewBox="0 0 3722 572" fill="none" xmlns="http://www.w3.org/2000/svg">
<rect y="21" width="688" height="130" rx="30" fill="white"/>
<rect y="181" width="90" height="170" rx="30" fill="#FF725E"/>
<rect x="122" y="221" width="565" height="130" rx="30" fill="white"/>
<rect y="421" width="566" height="130" rx="30" fill="white"/>
<rect x="598" y="381" width="90" height="170" rx="30" fill="#FF725E"/>
<path d="M1164.72 365.738C1164.72 383.512 1160.41 398.961 1151.8 412.086C1143.18 425.211 1130.61 435.328 1114.06 442.438C1097.66 449.547 1077.7 453.102 1054.18 453.102C1043.79 453.102 1033.6 452.418 1023.62 451.051C1013.78 449.684 1004.28 447.701 995.117 445.104C986.094 442.369 977.48 439.02 969.277 435.055V375.992C983.496 382.281 998.262 387.955 1013.57 393.014C1028.89 398.072 1044.06 400.602 1059.1 400.602C1069.49 400.602 1077.83 399.234 1084.12 396.5C1090.55 393.766 1095.2 390.006 1098.07 385.221C1100.94 380.436 1102.37 374.967 1102.37 368.814C1102.37 361.295 1099.84 354.869 1094.79 349.537C1089.73 344.205 1082.75 339.215 1073.87 334.566C1065.12 329.918 1055.21 324.928 1044.13 319.596C1037.16 316.314 1029.57 312.35 1021.37 307.701C1013.16 302.916 1005.37 297.105 997.988 290.27C990.605 283.434 984.521 275.162 979.736 265.455C975.088 255.611 972.764 243.854 972.764 230.182C972.764 212.271 976.865 196.959 985.068 184.244C993.271 171.529 1004.96 161.822 1020.14 155.123C1035.45 148.287 1053.5 144.869 1074.28 144.869C1089.86 144.869 1104.7 146.715 1118.78 150.406C1133 153.961 1147.83 159.156 1163.28 165.992L1142.77 215.416C1128.96 209.811 1116.59 205.504 1105.65 202.496C1094.72 199.352 1083.57 197.779 1072.23 197.779C1064.3 197.779 1057.53 199.078 1051.92 201.676C1046.32 204.137 1042.08 207.691 1039.21 212.34C1036.34 216.852 1034.9 222.115 1034.9 228.131C1034.9 235.24 1036.95 241.256 1041.05 246.178C1045.29 250.963 1051.58 255.611 1059.92 260.123C1068.4 264.635 1078.93 269.898 1091.5 275.914C1106.82 283.16 1119.87 290.748 1130.67 298.678C1141.61 306.471 1150.02 315.699 1155.9 326.363C1161.78 336.891 1164.72 350.016 1164.72 365.738ZM1310.73 403.268C1317.57 403.268 1324.2 402.584 1330.62 401.217C1337.19 399.85 1343.68 398.141 1350.11 396.09V442.643C1343.41 445.65 1335.07 448.111 1325.09 450.025C1315.24 452.076 1304.44 453.102 1292.69 453.102C1279.01 453.102 1266.71 450.914 1255.77 446.539C1244.97 442.027 1236.43 434.303 1230.14 423.365C1223.98 412.291 1220.91 396.91 1220.91 377.223V266.686H1190.97V240.23L1225.42 219.312L1243.47 170.914H1283.46V219.723H1347.65V266.686H1283.46V377.223C1283.46 385.973 1285.92 392.535 1290.84 396.91C1295.9 401.148 1302.53 403.268 1310.73 403.268ZM1607.07 219.723V449H1559.08L1550.67 419.674H1547.39C1542.47 427.467 1536.32 433.824 1528.94 438.746C1521.55 443.668 1513.42 447.291 1504.53 449.615C1495.64 451.939 1486.42 453.102 1476.85 453.102C1460.44 453.102 1446.15 450.23 1433.98 444.488C1421.82 438.609 1412.31 429.518 1405.48 417.213C1398.78 404.908 1395.43 388.912 1395.43 369.225V219.723H1457.98V353.639C1457.98 370.045 1460.92 382.418 1466.8 390.758C1472.68 399.098 1482.04 403.268 1494.89 403.268C1507.61 403.268 1517.59 400.396 1524.83 394.654C1532.08 388.775 1537.14 380.23 1540.01 369.02C1543.02 357.672 1544.52 343.863 1544.52 327.594V219.723H1607.07ZM1745.29 453.102C1719.73 453.102 1698.88 443.121 1682.74 423.16C1666.75 403.062 1658.75 373.6 1658.75 334.771C1658.75 295.533 1666.88 265.865 1683.15 245.768C1699.42 225.533 1720.68 215.416 1746.93 215.416C1757.87 215.416 1767.51 216.92 1775.85 219.928C1784.19 222.936 1791.37 226.969 1797.38 232.027C1803.54 237.086 1808.73 242.76 1812.97 249.049H1815.02C1814.2 244.674 1813.17 238.248 1811.94 229.771C1810.85 221.158 1810.3 212.34 1810.3 203.316V129.898H1873.06V449H1825.07L1812.97 419.264H1810.3C1806.34 425.553 1801.35 431.295 1795.33 436.49C1789.45 441.549 1782.41 445.582 1774.21 448.59C1766.01 451.598 1756.37 453.102 1745.29 453.102ZM1767.24 403.268C1784.33 403.268 1796.36 398.209 1803.33 388.092C1810.44 377.838 1814.2 362.457 1814.61 341.949V335.182C1814.61 312.896 1811.19 295.875 1804.36 284.117C1797.52 272.223 1784.8 266.275 1766.21 266.275C1752.4 266.275 1741.6 272.223 1733.81 284.117C1726.02 296.012 1722.12 313.17 1722.12 335.592C1722.12 358.014 1726.02 374.898 1733.81 386.246C1741.74 397.594 1752.88 403.268 1767.24 403.268ZM1905.66 219.723H1974.16L2017.43 348.717C2018.8 352.818 2019.96 356.988 2020.92 361.227C2021.88 365.465 2022.7 369.84 2023.38 374.352C2024.06 378.863 2024.61 383.58 2025.02 388.502H2026.25C2027.07 381.119 2028.16 374.215 2029.53 367.789C2031.04 361.363 2032.88 355.006 2035.07 348.717L2077.52 219.723H2144.58L2047.58 478.326C2041.7 494.186 2034.04 507.379 2024.61 517.906C2015.18 528.57 2004.31 536.568 1992 541.9C1979.83 547.232 1966.44 549.898 1951.81 549.898C1944.7 549.898 1938.54 549.488 1933.35 548.668C1928.15 547.984 1923.71 547.232 1920.02 546.412V496.783C1922.89 497.467 1926.51 498.082 1930.89 498.629C1935.26 499.176 1939.84 499.449 1944.63 499.449C1953.38 499.449 1960.9 497.604 1967.19 493.912C1973.48 490.221 1978.74 485.23 1982.98 478.941C1987.22 472.789 1990.57 466.021 1993.03 458.639L1996.72 447.359L1905.66 219.723ZM2157.29 362.047V310.777H2267.42V362.047H2157.29ZM2431.69 280.631H2550.63V436.08C2534.91 441.275 2518.57 445.445 2501.62 448.59C2484.67 451.598 2465.46 453.102 2443.99 453.102C2414.19 453.102 2388.9 447.223 2368.12 435.465C2347.33 423.707 2331.54 406.344 2320.74 383.375C2309.94 360.406 2304.54 332.174 2304.54 298.678C2304.54 267.232 2310.56 240.025 2322.59 217.057C2334.76 194.088 2352.46 176.314 2375.7 163.736C2399.08 151.158 2427.59 144.869 2461.22 144.869C2477.08 144.869 2492.73 146.578 2508.18 149.996C2523.63 153.414 2537.65 157.857 2550.22 163.326L2529.1 214.186C2519.94 209.537 2509.48 205.641 2497.72 202.496C2485.97 199.352 2473.66 197.779 2460.81 197.779C2442.35 197.779 2426.29 202.018 2412.62 210.494C2399.08 218.971 2388.55 230.865 2381.04 246.178C2373.65 261.354 2369.96 279.264 2369.96 299.908C2369.96 319.459 2372.63 336.822 2377.96 351.998C2383.29 367.037 2391.7 378.863 2403.18 387.477C2414.67 395.953 2429.64 400.191 2448.1 400.191C2457.12 400.191 2464.71 399.781 2470.86 398.961C2477.15 398.004 2483.03 397.047 2488.5 396.09V333.541H2431.69V280.631ZM2711.83 215.416C2733.02 215.416 2751.27 219.518 2766.58 227.721C2781.89 235.787 2793.72 247.545 2802.06 262.994C2810.4 278.443 2814.57 297.311 2814.57 319.596V349.947H2666.71C2667.39 367.584 2672.66 381.461 2682.5 391.578C2692.48 401.559 2706.29 406.549 2723.93 406.549C2738.55 406.549 2751.95 405.045 2764.12 402.037C2776.29 399.029 2788.8 394.518 2801.65 388.502V436.9C2790.3 442.506 2778.41 446.607 2765.97 449.205C2753.66 451.803 2738.69 453.102 2721.05 453.102C2698.09 453.102 2677.71 448.863 2659.94 440.387C2642.3 431.91 2628.43 418.99 2618.31 401.627C2608.33 384.264 2603.34 362.389 2603.34 336.002C2603.34 309.205 2607.85 286.92 2616.88 269.146C2626.04 251.236 2638.75 237.838 2655.02 228.951C2671.29 219.928 2690.22 215.416 2711.83 215.416ZM2712.24 259.918C2700.07 259.918 2689.95 263.814 2681.88 271.607C2673.96 279.4 2669.38 291.637 2668.14 308.316H2755.92C2755.78 299.02 2754.07 290.748 2750.79 283.502C2747.65 276.256 2742.86 270.514 2736.44 266.275C2730.15 262.037 2722.08 259.918 2712.24 259.918ZM2995.65 215.416C3020.13 215.416 3039.81 222.115 3054.72 235.514C3069.62 248.775 3077.07 270.104 3077.07 299.498V449H3014.52V315.084C3014.52 298.678 3011.51 286.305 3005.5 277.965C2999.62 269.625 2990.32 265.455 2977.61 265.455C2958.47 265.455 2945.41 271.949 2938.44 284.938C2931.46 297.926 2927.98 316.656 2927.98 341.129V449H2865.43V219.723H2913.21L2921.62 249.049H2925.11C2930.03 241.119 2936.11 234.693 2943.36 229.771C2950.74 224.85 2958.88 221.227 2967.76 218.902C2976.79 216.578 2986.08 215.416 2995.65 215.416ZM3204.01 219.723V449H3141.46V219.723H3204.01ZM3172.84 129.898C3182.14 129.898 3190.14 132.086 3196.84 136.461C3203.54 140.699 3206.88 148.697 3206.88 160.455C3206.88 172.076 3203.54 180.143 3196.84 184.654C3190.14 189.029 3182.14 191.217 3172.84 191.217C3163.41 191.217 3155.34 189.029 3148.64 184.654C3142.08 180.143 3138.8 172.076 3138.8 160.455C3138.8 148.697 3142.08 140.699 3148.64 136.461C3155.34 132.086 3163.41 129.898 3172.84 129.898ZM3480.25 219.723V449H3432.27L3423.86 419.674H3420.58C3415.65 427.467 3409.5 433.824 3402.12 438.746C3394.74 443.668 3386.6 447.291 3377.71 449.615C3368.83 451.939 3359.6 453.102 3350.03 453.102C3333.62 453.102 3319.34 450.23 3307.17 444.488C3295 438.609 3285.5 429.518 3278.66 417.213C3271.96 404.908 3268.61 388.912 3268.61 369.225V219.723H3331.16V353.639C3331.16 370.045 3334.1 382.418 3339.98 390.758C3345.86 399.098 3355.22 403.268 3368.08 403.268C3380.79 403.268 3390.77 400.396 3398.02 394.654C3405.26 388.775 3410.32 380.23 3413.19 369.02C3416.2 357.672 3417.71 343.863 3417.71 327.594V219.723H3480.25ZM3705.84 380.914C3705.84 396.5 3702.15 409.693 3694.77 420.494C3687.52 431.158 3676.65 439.293 3662.16 444.898C3647.67 450.367 3629.62 453.102 3608.02 453.102C3592.02 453.102 3578.28 452.076 3566.8 450.025C3555.45 447.975 3543.96 444.557 3532.34 439.771V388.092C3544.79 393.697 3558.12 398.346 3572.33 402.037C3586.69 405.592 3599.27 407.369 3610.07 407.369C3622.24 407.369 3630.92 405.592 3636.11 402.037C3641.45 398.346 3644.11 393.561 3644.11 387.682C3644.11 383.854 3643.02 380.436 3640.83 377.428C3638.78 374.283 3634.27 370.797 3627.29 366.969C3620.32 363.004 3609.38 357.877 3594.48 351.588C3580.13 345.572 3568.3 339.488 3559 333.336C3549.84 327.184 3543.01 319.938 3538.5 311.598C3534.12 303.121 3531.93 292.389 3531.93 279.4C3531.93 258.209 3540.14 242.281 3556.54 231.617C3573.09 220.816 3595.17 215.416 3622.78 215.416C3637 215.416 3650.54 216.852 3663.39 219.723C3676.38 222.594 3689.71 227.174 3703.38 233.463L3684.51 278.58C3673.16 273.658 3662.43 269.625 3652.31 266.48C3642.33 263.336 3632.15 261.764 3621.76 261.764C3612.6 261.764 3605.69 262.994 3601.04 265.455C3596.4 267.916 3594.07 271.676 3594.07 276.734C3594.07 280.426 3595.23 283.707 3597.56 286.578C3600.02 289.449 3604.67 292.662 3611.5 296.217C3618.48 299.635 3628.66 304.078 3642.06 309.547C3655.05 314.879 3666.33 320.484 3675.9 326.363C3685.47 332.105 3692.85 339.283 3698.05 347.896C3703.24 356.373 3705.84 367.379 3705.84 380.914Z" fill="white"/>
</svg>
